<mxfile host="app.diagrams.net" modified="2023-05-05T06:36:15.522Z" agent="Mozilla/5.0 (Windows NT 10.0; Win64; x64) AppleWebKit/537.36 (KHTML, like Gecko) Chrome/112.0.0.0 Safari/537.36" etag="u3JYiBG2qiYe4Exk_4Ph" version="21.2.9" type="device">
  <diagram name="PÃ¡gina-1" id="sKYic6Cmr02taCRct6_o">
    <mxGraphModel dx="794" dy="712" grid="1" gridSize="10" guides="1" tooltips="1" connect="1" arrows="1" fold="1" page="1" pageScale="1" pageWidth="827" pageHeight="1169" math="0" shadow="0">
      <root>
        <mxCell id="0" />
        <mxCell id="1" parent="0" />
        <mxCell id="hB6sKYSQo-hFwrnTHyt--1" value="carreras" style="shape=table;startSize=30;container=1;collapsible=1;childLayout=tableLayout;fixedRows=1;rowLines=0;fontStyle=1;align=center;resizeLast=1;html=1;" vertex="1" parent="1">
          <mxGeometry x="120" y="800" width="189" height="320" as="geometry" />
        </mxCell>
        <mxCell id="hB6sKYSQo-hFwrnTHyt--2" value="" style="shape=tableRow;horizontal=0;startSize=0;swimlaneHead=0;swimlaneBody=0;fillColor=none;collapsible=0;dropTarget=0;points=[[0,0.5],[1,0.5]];portConstraint=eastwest;top=0;left=0;right=0;bottom=1;" vertex="1" parent="hB6sKYSQo-hFwrnTHyt--1">
          <mxGeometry y="30" width="189" height="30" as="geometry" />
        </mxCell>
        <mxCell id="hB6sKYSQo-hFwrnTHyt--3" value="PK" style="shape=partialRectangle;connectable=0;fillColor=none;top=0;left=0;bottom=0;right=0;fontStyle=1;overflow=hidden;whiteSpace=wrap;html=1;" vertex="1" parent="hB6sKYSQo-hFwrnTHyt--2">
          <mxGeometry width="30" height="30" as="geometry">
            <mxRectangle width="30" height="30" as="alternateBounds" />
          </mxGeometry>
        </mxCell>
        <mxCell id="hB6sKYSQo-hFwrnTHyt--4" value="carrera_id INT AUTO" style="shape=partialRectangle;connectable=0;fillColor=none;top=0;left=0;bottom=0;right=0;align=left;spacingLeft=6;fontStyle=5;overflow=hidden;whiteSpace=wrap;html=1;" vertex="1" parent="hB6sKYSQo-hFwrnTHyt--2">
          <mxGeometry x="30" width="159" height="30" as="geometry">
            <mxRectangle width="159" height="30" as="alternateBounds" />
          </mxGeometry>
        </mxCell>
        <mxCell id="hB6sKYSQo-hFwrnTHyt--5" value="" style="shape=tableRow;horizontal=0;startSize=0;swimlaneHead=0;swimlaneBody=0;fillColor=none;collapsible=0;dropTarget=0;points=[[0,0.5],[1,0.5]];portConstraint=eastwest;top=0;left=0;right=0;bottom=0;" vertex="1" parent="hB6sKYSQo-hFwrnTHyt--1">
          <mxGeometry y="60" width="189" height="20" as="geometry" />
        </mxCell>
        <mxCell id="hB6sKYSQo-hFwrnTHyt--6" value="" style="shape=partialRectangle;connectable=0;fillColor=none;top=0;left=0;bottom=0;right=0;editable=1;overflow=hidden;whiteSpace=wrap;html=1;" vertex="1" parent="hB6sKYSQo-hFwrnTHyt--5">
          <mxGeometry width="30" height="20" as="geometry">
            <mxRectangle width="30" height="20" as="alternateBounds" />
          </mxGeometry>
        </mxCell>
        <mxCell id="hB6sKYSQo-hFwrnTHyt--7" value="nombre&amp;nbsp; VARCHAR(50)" style="shape=partialRectangle;connectable=0;fillColor=none;top=0;left=0;bottom=0;right=0;align=left;spacingLeft=6;overflow=hidden;whiteSpace=wrap;html=1;" vertex="1" parent="hB6sKYSQo-hFwrnTHyt--5">
          <mxGeometry x="30" width="159" height="20" as="geometry">
            <mxRectangle width="159" height="20" as="alternateBounds" />
          </mxGeometry>
        </mxCell>
        <mxCell id="hB6sKYSQo-hFwrnTHyt--8" value="" style="shape=tableRow;horizontal=0;startSize=0;swimlaneHead=0;swimlaneBody=0;fillColor=none;collapsible=0;dropTarget=0;points=[[0,0.5],[1,0.5]];portConstraint=eastwest;top=0;left=0;right=0;bottom=0;" vertex="1" parent="hB6sKYSQo-hFwrnTHyt--1">
          <mxGeometry y="80" width="189" height="30" as="geometry" />
        </mxCell>
        <mxCell id="hB6sKYSQo-hFwrnTHyt--9" value="&lt;b&gt;FK&lt;/b&gt;" style="shape=partialRectangle;connectable=0;fillColor=none;top=0;left=0;bottom=0;right=0;editable=1;overflow=hidden;whiteSpace=wrap;html=1;" vertex="1" parent="hB6sKYSQo-hFwrnTHyt--8">
          <mxGeometry width="30" height="30" as="geometry">
            <mxRectangle width="30" height="30" as="alternateBounds" />
          </mxGeometry>
        </mxCell>
        <mxCell id="hB6sKYSQo-hFwrnTHyt--10" value="tipo_carrera&amp;nbsp; INT" style="shape=partialRectangle;connectable=0;fillColor=none;top=0;left=0;bottom=0;right=0;align=left;spacingLeft=6;overflow=hidden;whiteSpace=wrap;html=1;" vertex="1" parent="hB6sKYSQo-hFwrnTHyt--8">
          <mxGeometry x="30" width="159" height="30" as="geometry">
            <mxRectangle width="159" height="30" as="alternateBounds" />
          </mxGeometry>
        </mxCell>
        <mxCell id="hB6sKYSQo-hFwrnTHyt--11" value="" style="shape=tableRow;horizontal=0;startSize=0;swimlaneHead=0;swimlaneBody=0;fillColor=none;collapsible=0;dropTarget=0;points=[[0,0.5],[1,0.5]];portConstraint=eastwest;top=0;left=0;right=0;bottom=0;" vertex="1" parent="hB6sKYSQo-hFwrnTHyt--1">
          <mxGeometry y="110" width="189" height="30" as="geometry" />
        </mxCell>
        <mxCell id="hB6sKYSQo-hFwrnTHyt--12" value="" style="shape=partialRectangle;connectable=0;fillColor=none;top=0;left=0;bottom=0;right=0;editable=1;overflow=hidden;whiteSpace=wrap;html=1;" vertex="1" parent="hB6sKYSQo-hFwrnTHyt--11">
          <mxGeometry width="30" height="30" as="geometry">
            <mxRectangle width="30" height="30" as="alternateBounds" />
          </mxGeometry>
        </mxCell>
        <mxCell id="hB6sKYSQo-hFwrnTHyt--13" value="fecha&amp;nbsp; DATE" style="shape=partialRectangle;connectable=0;fillColor=none;top=0;left=0;bottom=0;right=0;align=left;spacingLeft=6;overflow=hidden;whiteSpace=wrap;html=1;" vertex="1" parent="hB6sKYSQo-hFwrnTHyt--11">
          <mxGeometry x="30" width="159" height="30" as="geometry">
            <mxRectangle width="159" height="30" as="alternateBounds" />
          </mxGeometry>
        </mxCell>
        <mxCell id="hB6sKYSQo-hFwrnTHyt--30" value="" style="shape=tableRow;horizontal=0;startSize=0;swimlaneHead=0;swimlaneBody=0;fillColor=none;collapsible=0;dropTarget=0;points=[[0,0.5],[1,0.5]];portConstraint=eastwest;top=0;left=0;right=0;bottom=0;" vertex="1" parent="hB6sKYSQo-hFwrnTHyt--1">
          <mxGeometry y="140" width="189" height="30" as="geometry" />
        </mxCell>
        <mxCell id="hB6sKYSQo-hFwrnTHyt--31" value="" style="shape=partialRectangle;connectable=0;fillColor=none;top=0;left=0;bottom=0;right=0;editable=1;overflow=hidden;whiteSpace=wrap;html=1;" vertex="1" parent="hB6sKYSQo-hFwrnTHyt--30">
          <mxGeometry width="30" height="30" as="geometry">
            <mxRectangle width="30" height="30" as="alternateBounds" />
          </mxGeometry>
        </mxCell>
        <mxCell id="hB6sKYSQo-hFwrnTHyt--32" value="tiempo&amp;nbsp; VARCHAR(10)" style="shape=partialRectangle;connectable=0;fillColor=none;top=0;left=0;bottom=0;right=0;align=left;spacingLeft=6;overflow=hidden;whiteSpace=wrap;html=1;" vertex="1" parent="hB6sKYSQo-hFwrnTHyt--30">
          <mxGeometry x="30" width="159" height="30" as="geometry">
            <mxRectangle width="159" height="30" as="alternateBounds" />
          </mxGeometry>
        </mxCell>
        <mxCell id="hB6sKYSQo-hFwrnTHyt--33" value="" style="shape=tableRow;horizontal=0;startSize=0;swimlaneHead=0;swimlaneBody=0;fillColor=none;collapsible=0;dropTarget=0;points=[[0,0.5],[1,0.5]];portConstraint=eastwest;top=0;left=0;right=0;bottom=0;" vertex="1" parent="hB6sKYSQo-hFwrnTHyt--1">
          <mxGeometry y="170" width="189" height="30" as="geometry" />
        </mxCell>
        <mxCell id="hB6sKYSQo-hFwrnTHyt--34" value="" style="shape=partialRectangle;connectable=0;fillColor=none;top=0;left=0;bottom=0;right=0;editable=1;overflow=hidden;whiteSpace=wrap;html=1;" vertex="1" parent="hB6sKYSQo-hFwrnTHyt--33">
          <mxGeometry width="30" height="30" as="geometry">
            <mxRectangle width="30" height="30" as="alternateBounds" />
          </mxGeometry>
        </mxCell>
        <mxCell id="hB6sKYSQo-hFwrnTHyt--35" value="mejor_tiempo&amp;nbsp; BOOLEAN" style="shape=partialRectangle;connectable=0;fillColor=none;top=0;left=0;bottom=0;right=0;align=left;spacingLeft=6;overflow=hidden;whiteSpace=wrap;html=1;" vertex="1" parent="hB6sKYSQo-hFwrnTHyt--33">
          <mxGeometry x="30" width="159" height="30" as="geometry">
            <mxRectangle width="159" height="30" as="alternateBounds" />
          </mxGeometry>
        </mxCell>
        <mxCell id="hB6sKYSQo-hFwrnTHyt--36" value="" style="shape=tableRow;horizontal=0;startSize=0;swimlaneHead=0;swimlaneBody=0;fillColor=none;collapsible=0;dropTarget=0;points=[[0,0.5],[1,0.5]];portConstraint=eastwest;top=0;left=0;right=0;bottom=0;" vertex="1" parent="hB6sKYSQo-hFwrnTHyt--1">
          <mxGeometry y="200" width="189" height="30" as="geometry" />
        </mxCell>
        <mxCell id="hB6sKYSQo-hFwrnTHyt--37" value="" style="shape=partialRectangle;connectable=0;fillColor=none;top=0;left=0;bottom=0;right=0;editable=1;overflow=hidden;whiteSpace=wrap;html=1;" vertex="1" parent="hB6sKYSQo-hFwrnTHyt--36">
          <mxGeometry width="30" height="30" as="geometry">
            <mxRectangle width="30" height="30" as="alternateBounds" />
          </mxGeometry>
        </mxCell>
        <mxCell id="hB6sKYSQo-hFwrnTHyt--38" value="altitud&amp;nbsp; INT" style="shape=partialRectangle;connectable=0;fillColor=none;top=0;left=0;bottom=0;right=0;align=left;spacingLeft=6;overflow=hidden;whiteSpace=wrap;html=1;" vertex="1" parent="hB6sKYSQo-hFwrnTHyt--36">
          <mxGeometry x="30" width="159" height="30" as="geometry">
            <mxRectangle width="159" height="30" as="alternateBounds" />
          </mxGeometry>
        </mxCell>
        <mxCell id="hB6sKYSQo-hFwrnTHyt--39" value="" style="shape=tableRow;horizontal=0;startSize=0;swimlaneHead=0;swimlaneBody=0;fillColor=none;collapsible=0;dropTarget=0;points=[[0,0.5],[1,0.5]];portConstraint=eastwest;top=0;left=0;right=0;bottom=0;" vertex="1" parent="hB6sKYSQo-hFwrnTHyt--1">
          <mxGeometry y="230" width="189" height="30" as="geometry" />
        </mxCell>
        <mxCell id="hB6sKYSQo-hFwrnTHyt--40" value="" style="shape=partialRectangle;connectable=0;fillColor=none;top=0;left=0;bottom=0;right=0;editable=1;overflow=hidden;whiteSpace=wrap;html=1;" vertex="1" parent="hB6sKYSQo-hFwrnTHyt--39">
          <mxGeometry width="30" height="30" as="geometry">
            <mxRectangle width="30" height="30" as="alternateBounds" />
          </mxGeometry>
        </mxCell>
        <mxCell id="hB6sKYSQo-hFwrnTHyt--41" value="lugar&amp;nbsp; VARCHAR(50)" style="shape=partialRectangle;connectable=0;fillColor=none;top=0;left=0;bottom=0;right=0;align=left;spacingLeft=6;overflow=hidden;whiteSpace=wrap;html=1;" vertex="1" parent="hB6sKYSQo-hFwrnTHyt--39">
          <mxGeometry x="30" width="159" height="30" as="geometry">
            <mxRectangle width="159" height="30" as="alternateBounds" />
          </mxGeometry>
        </mxCell>
        <mxCell id="hB6sKYSQo-hFwrnTHyt--42" value="" style="shape=tableRow;horizontal=0;startSize=0;swimlaneHead=0;swimlaneBody=0;fillColor=none;collapsible=0;dropTarget=0;points=[[0,0.5],[1,0.5]];portConstraint=eastwest;top=0;left=0;right=0;bottom=0;" vertex="1" parent="hB6sKYSQo-hFwrnTHyt--1">
          <mxGeometry y="260" width="189" height="30" as="geometry" />
        </mxCell>
        <mxCell id="hB6sKYSQo-hFwrnTHyt--43" value="" style="shape=partialRectangle;connectable=0;fillColor=none;top=0;left=0;bottom=0;right=0;editable=1;overflow=hidden;whiteSpace=wrap;html=1;" vertex="1" parent="hB6sKYSQo-hFwrnTHyt--42">
          <mxGeometry width="30" height="30" as="geometry">
            <mxRectangle width="30" height="30" as="alternateBounds" />
          </mxGeometry>
        </mxCell>
        <mxCell id="hB6sKYSQo-hFwrnTHyt--44" value="pais&amp;nbsp; INT" style="shape=partialRectangle;connectable=0;fillColor=none;top=0;left=0;bottom=0;right=0;align=left;spacingLeft=6;overflow=hidden;whiteSpace=wrap;html=1;" vertex="1" parent="hB6sKYSQo-hFwrnTHyt--42">
          <mxGeometry x="30" width="159" height="30" as="geometry">
            <mxRectangle width="159" height="30" as="alternateBounds" />
          </mxGeometry>
        </mxCell>
        <mxCell id="hB6sKYSQo-hFwrnTHyt--45" value="" style="shape=tableRow;horizontal=0;startSize=0;swimlaneHead=0;swimlaneBody=0;fillColor=none;collapsible=0;dropTarget=0;points=[[0,0.5],[1,0.5]];portConstraint=eastwest;top=0;left=0;right=0;bottom=0;" vertex="1" parent="hB6sKYSQo-hFwrnTHyt--1">
          <mxGeometry y="290" width="189" height="30" as="geometry" />
        </mxCell>
        <mxCell id="hB6sKYSQo-hFwrnTHyt--46" value="" style="shape=partialRectangle;connectable=0;fillColor=none;top=0;left=0;bottom=0;right=0;editable=1;overflow=hidden;whiteSpace=wrap;html=1;" vertex="1" parent="hB6sKYSQo-hFwrnTHyt--45">
          <mxGeometry width="30" height="30" as="geometry">
            <mxRectangle width="30" height="30" as="alternateBounds" />
          </mxGeometry>
        </mxCell>
        <mxCell id="hB6sKYSQo-hFwrnTHyt--47" value="foto&amp;nbsp; VARCHAR(255)" style="shape=partialRectangle;connectable=0;fillColor=none;top=0;left=0;bottom=0;right=0;align=left;spacingLeft=6;overflow=hidden;whiteSpace=wrap;html=1;" vertex="1" parent="hB6sKYSQo-hFwrnTHyt--45">
          <mxGeometry x="30" width="159" height="30" as="geometry">
            <mxRectangle width="159" height="30" as="alternateBounds" />
          </mxGeometry>
        </mxCell>
        <mxCell id="hB6sKYSQo-hFwrnTHyt--51" value="&lt;b&gt;FK&lt;/b&gt;" style="shape=partialRectangle;connectable=0;fillColor=none;top=0;left=0;bottom=0;right=0;editable=1;overflow=hidden;whiteSpace=wrap;html=1;" vertex="1" parent="1">
          <mxGeometry x="120" y="1060" width="30" height="30" as="geometry">
            <mxRectangle width="30" height="30" as="alternateBounds" />
          </mxGeometry>
        </mxCell>
        <mxCell id="hB6sKYSQo-hFwrnTHyt--53" value="tipos_carrera" style="shape=table;startSize=30;container=1;collapsible=1;childLayout=tableLayout;fixedRows=1;rowLines=0;fontStyle=1;align=center;resizeLast=1;html=1;" vertex="1" parent="1">
          <mxGeometry x="400" y="800" width="200" height="120" as="geometry" />
        </mxCell>
        <mxCell id="hB6sKYSQo-hFwrnTHyt--54" value="" style="shape=tableRow;horizontal=0;startSize=0;swimlaneHead=0;swimlaneBody=0;fillColor=none;collapsible=0;dropTarget=0;points=[[0,0.5],[1,0.5]];portConstraint=eastwest;top=0;left=0;right=0;bottom=1;" vertex="1" parent="hB6sKYSQo-hFwrnTHyt--53">
          <mxGeometry y="30" width="200" height="30" as="geometry" />
        </mxCell>
        <mxCell id="hB6sKYSQo-hFwrnTHyt--55" value="PK" style="shape=partialRectangle;connectable=0;fillColor=none;top=0;left=0;bottom=0;right=0;fontStyle=1;overflow=hidden;whiteSpace=wrap;html=1;" vertex="1" parent="hB6sKYSQo-hFwrnTHyt--54">
          <mxGeometry width="30" height="30" as="geometry">
            <mxRectangle width="30" height="30" as="alternateBounds" />
          </mxGeometry>
        </mxCell>
        <mxCell id="hB6sKYSQo-hFwrnTHyt--56" value="tipo_carreta_id INT AUTO" style="shape=partialRectangle;connectable=0;fillColor=none;top=0;left=0;bottom=0;right=0;align=left;spacingLeft=6;fontStyle=5;overflow=hidden;whiteSpace=wrap;html=1;" vertex="1" parent="hB6sKYSQo-hFwrnTHyt--54">
          <mxGeometry x="30" width="170" height="30" as="geometry">
            <mxRectangle width="170" height="30" as="alternateBounds" />
          </mxGeometry>
        </mxCell>
        <mxCell id="hB6sKYSQo-hFwrnTHyt--57" value="" style="shape=tableRow;horizontal=0;startSize=0;swimlaneHead=0;swimlaneBody=0;fillColor=none;collapsible=0;dropTarget=0;points=[[0,0.5],[1,0.5]];portConstraint=eastwest;top=0;left=0;right=0;bottom=0;" vertex="1" parent="hB6sKYSQo-hFwrnTHyt--53">
          <mxGeometry y="60" width="200" height="30" as="geometry" />
        </mxCell>
        <mxCell id="hB6sKYSQo-hFwrnTHyt--58" value="" style="shape=partialRectangle;connectable=0;fillColor=none;top=0;left=0;bottom=0;right=0;editable=1;overflow=hidden;whiteSpace=wrap;html=1;" vertex="1" parent="hB6sKYSQo-hFwrnTHyt--57">
          <mxGeometry width="30" height="30" as="geometry">
            <mxRectangle width="30" height="30" as="alternateBounds" />
          </mxGeometry>
        </mxCell>
        <mxCell id="hB6sKYSQo-hFwrnTHyt--59" value="descripcion&amp;nbsp; TEXT" style="shape=partialRectangle;connectable=0;fillColor=none;top=0;left=0;bottom=0;right=0;align=left;spacingLeft=6;overflow=hidden;whiteSpace=wrap;html=1;" vertex="1" parent="hB6sKYSQo-hFwrnTHyt--57">
          <mxGeometry x="30" width="170" height="30" as="geometry">
            <mxRectangle width="170" height="30" as="alternateBounds" />
          </mxGeometry>
        </mxCell>
        <mxCell id="hB6sKYSQo-hFwrnTHyt--60" value="" style="shape=tableRow;horizontal=0;startSize=0;swimlaneHead=0;swimlaneBody=0;fillColor=none;collapsible=0;dropTarget=0;points=[[0,0.5],[1,0.5]];portConstraint=eastwest;top=0;left=0;right=0;bottom=0;" vertex="1" parent="hB6sKYSQo-hFwrnTHyt--53">
          <mxGeometry y="90" width="200" height="30" as="geometry" />
        </mxCell>
        <mxCell id="hB6sKYSQo-hFwrnTHyt--61" value="UQ" style="shape=partialRectangle;connectable=0;fillColor=none;top=0;left=0;bottom=0;right=0;editable=1;overflow=hidden;whiteSpace=wrap;html=1;" vertex="1" parent="hB6sKYSQo-hFwrnTHyt--60">
          <mxGeometry width="30" height="30" as="geometry">
            <mxRectangle width="30" height="30" as="alternateBounds" />
          </mxGeometry>
        </mxCell>
        <mxCell id="hB6sKYSQo-hFwrnTHyt--62" value="distancia&amp;nbsp; FLOAT" style="shape=partialRectangle;connectable=0;fillColor=none;top=0;left=0;bottom=0;right=0;align=left;spacingLeft=6;overflow=hidden;whiteSpace=wrap;html=1;" vertex="1" parent="hB6sKYSQo-hFwrnTHyt--60">
          <mxGeometry x="30" width="170" height="30" as="geometry">
            <mxRectangle width="170" height="30" as="alternateBounds" />
          </mxGeometry>
        </mxCell>
        <mxCell id="hB6sKYSQo-hFwrnTHyt--66" value="paises_id" style="shape=table;startSize=30;container=1;collapsible=1;childLayout=tableLayout;fixedRows=1;rowLines=0;fontStyle=1;align=center;resizeLast=1;html=1;" vertex="1" parent="1">
          <mxGeometry x="400" y="1030" width="200" height="90" as="geometry" />
        </mxCell>
        <mxCell id="hB6sKYSQo-hFwrnTHyt--67" value="" style="shape=tableRow;horizontal=0;startSize=0;swimlaneHead=0;swimlaneBody=0;fillColor=none;collapsible=0;dropTarget=0;points=[[0,0.5],[1,0.5]];portConstraint=eastwest;top=0;left=0;right=0;bottom=1;" vertex="1" parent="hB6sKYSQo-hFwrnTHyt--66">
          <mxGeometry y="30" width="200" height="30" as="geometry" />
        </mxCell>
        <mxCell id="hB6sKYSQo-hFwrnTHyt--68" value="PK" style="shape=partialRectangle;connectable=0;fillColor=none;top=0;left=0;bottom=0;right=0;fontStyle=1;overflow=hidden;whiteSpace=wrap;html=1;" vertex="1" parent="hB6sKYSQo-hFwrnTHyt--67">
          <mxGeometry width="30" height="30" as="geometry">
            <mxRectangle width="30" height="30" as="alternateBounds" />
          </mxGeometry>
        </mxCell>
        <mxCell id="hB6sKYSQo-hFwrnTHyt--69" value="pais_id&amp;nbsp; INT AUTO" style="shape=partialRectangle;connectable=0;fillColor=none;top=0;left=0;bottom=0;right=0;align=left;spacingLeft=6;fontStyle=5;overflow=hidden;whiteSpace=wrap;html=1;" vertex="1" parent="hB6sKYSQo-hFwrnTHyt--67">
          <mxGeometry x="30" width="170" height="30" as="geometry">
            <mxRectangle width="170" height="30" as="alternateBounds" />
          </mxGeometry>
        </mxCell>
        <mxCell id="hB6sKYSQo-hFwrnTHyt--70" value="" style="shape=tableRow;horizontal=0;startSize=0;swimlaneHead=0;swimlaneBody=0;fillColor=none;collapsible=0;dropTarget=0;points=[[0,0.5],[1,0.5]];portConstraint=eastwest;top=0;left=0;right=0;bottom=0;" vertex="1" parent="hB6sKYSQo-hFwrnTHyt--66">
          <mxGeometry y="60" width="200" height="30" as="geometry" />
        </mxCell>
        <mxCell id="hB6sKYSQo-hFwrnTHyt--71" value="" style="shape=partialRectangle;connectable=0;fillColor=none;top=0;left=0;bottom=0;right=0;editable=1;overflow=hidden;whiteSpace=wrap;html=1;" vertex="1" parent="hB6sKYSQo-hFwrnTHyt--70">
          <mxGeometry width="30" height="30" as="geometry">
            <mxRectangle width="30" height="30" as="alternateBounds" />
          </mxGeometry>
        </mxCell>
        <mxCell id="hB6sKYSQo-hFwrnTHyt--72" value="nombre&amp;nbsp; VARCHAR(50)" style="shape=partialRectangle;connectable=0;fillColor=none;top=0;left=0;bottom=0;right=0;align=left;spacingLeft=6;overflow=hidden;whiteSpace=wrap;html=1;" vertex="1" parent="hB6sKYSQo-hFwrnTHyt--70">
          <mxGeometry x="30" width="170" height="30" as="geometry">
            <mxRectangle width="170" height="30" as="alternateBounds" />
          </mxGeometry>
        </mxCell>
        <mxCell id="hB6sKYSQo-hFwrnTHyt--76" value="" style="edgeStyle=entityRelationEdgeStyle;fontSize=12;html=1;endArrow=ERmandOne;startArrow=ERmandOne;rounded=0;exitX=1;exitY=0.5;exitDx=0;exitDy=0;entryX=0;entryY=0.5;entryDx=0;entryDy=0;" edge="1" parent="1" source="hB6sKYSQo-hFwrnTHyt--2" target="hB6sKYSQo-hFwrnTHyt--54">
          <mxGeometry width="100" height="100" relative="1" as="geometry">
            <mxPoint x="360" y="420" as="sourcePoint" />
            <mxPoint x="460" y="320" as="targetPoint" />
          </mxGeometry>
        </mxCell>
        <mxCell id="hB6sKYSQo-hFwrnTHyt--78" value="" style="edgeStyle=entityRelationEdgeStyle;fontSize=12;html=1;endArrow=ERmandOne;startArrow=ERmandOne;rounded=0;exitX=1;exitY=0.5;exitDx=0;exitDy=0;entryX=-0.006;entryY=0.122;entryDx=0;entryDy=0;entryPerimeter=0;" edge="1" parent="1" source="hB6sKYSQo-hFwrnTHyt--2" target="hB6sKYSQo-hFwrnTHyt--66">
          <mxGeometry width="100" height="100" relative="1" as="geometry">
            <mxPoint x="360" y="420" as="sourcePoint" />
            <mxPoint x="380" y="170" as="targetPoint" />
          </mxGeometry>
        </mxCell>
        <mxCell id="hB6sKYSQo-hFwrnTHyt--79" value="&lt;b&gt;&lt;font style=&quot;font-size: 36px;&quot;&gt;Modelo Relacional de Base de Datos&lt;/font&gt;&lt;/b&gt;" style="text;html=1;align=center;verticalAlign=middle;resizable=0;points=[];autosize=1;strokeColor=none;fillColor=none;" vertex="1" parent="1">
          <mxGeometry x="80" y="690" width="650" height="60" as="geometry" />
        </mxCell>
      </root>
    </mxGraphModel>
  </diagram>
</mxfile>
